<?xml version="1.0" encoding="iso-8859-1"?>
<!-- Uploaded to: SVG Repo, www.svgrepo.com, Generator: SVG Repo Mixer Tools -->
<svg height="800px" width="800px" version="1.1" id="Capa_1" xmlns="http://www.w3.org/2000/svg" xmlns:xlink="http://www.w3.org/1999/xlink" 
	 viewBox="0 0 43.377 43.377" xml:space="preserve">
<g>
	<g>
		<path style="fill:#010002;" d="M30.347,29.841c-1.367-6-2.734-12-4.101-18.001c-0.061-0.263-0.219-0.412-0.408-0.484
			c-0.006-0.003-0.016-0.003-0.022-0.006c-0.069-0.023-0.139-0.042-0.214-0.043c-0.03-0.003-0.053-0.017-0.084-0.017
			c-2.423,0-4.847,0-7.27,0c-0.327,0-0.643,0.228-0.723,0.551c-1.482,5.985-2.963,11.971-4.445,17.956
			c-0.122,0.492-0.657,1.729-0.312,2.221c0.665,0.947,1.33,1.894,1.995,2.84c1.895,2.697,3.79,5.396,5.685,8.094
			c0.018,0.025,0.037,0.052,0.055,0.078c0.412,0.587,1.397,0.41,1.398-0.379c0.003-3.137-0.003-6.273-0.064-9.408
			c-0.013-0.684-0.026-1.37-0.067-2.053c-0.013-0.207-0.032-0.414-0.067-0.619c-0.087-0.503-0.601-0.725-0.3-1.303
			c0.285-0.551,1.043-0.465,1.348,0c0.353,0.535-0.256,0.961-0.321,1.479c-0.056,0.428-0.03,0.873-0.031,1.303
			c-0.013,3.522,0.062,7.047,0.125,10.569c0.015,0.75,1.007,1.019,1.397,0.379c1.592-2.608,3.184-5.219,4.774-7.828
			c0.638-1.046,1.276-2.092,1.914-3.139C30.935,31.496,30.47,30.382,30.347,29.841z M23.991,40.003
			c-0.037-2.242-0.076-4.484-0.089-6.726c-0.004-0.687-0.007-1.374,0.007-2.06c0.002-0.082,0.008-0.164,0.012-0.246
			c0.082-0.115,0.162-0.228,0.226-0.358c0.198-0.408,0.251-0.873,0.179-1.318c-0.238-1.465-1.908-2.374-3.255-1.676
			c-0.614,0.317-1.025,0.851-1.208,1.515c-0.101,0.367-0.057,0.75,0.015,1.115c0.036,0.184,0.138,0.364,0.218,0.531
			c0.024,0.05,0.124,0.246,0.171,0.301c0.01,0.137,0.018,0.271,0.025,0.409c0.023,0.481,0.034,0.962,0.045,1.442
			c0.03,1.338,0.042,2.677,0.052,4.015c0.008,1.106,0.008,2.215,0.011,3.321c-2.06-2.933-4.12-5.866-6.18-8.799
			c1.453-5.869,2.906-11.74,4.359-17.609c0.089-0.357,0.177-0.714,0.265-1.071c2.027,0,4.055,0,6.082,0
			c1.33,5.84,2.66,11.681,3.992,17.521c0.088,0.393,0.179,0.785,0.268,1.178C27.454,34.326,25.722,37.164,23.991,40.003z
			 M20.257,30.943c0,0.002,0,0.004,0,0.006c-0.002-0.007-0.002-0.009-0.005-0.017C20.255,30.938,20.256,30.938,20.257,30.943z"/>
		<path style="fill:#010002;" d="M16.146,7.457c-0.273,0-0.5,0.227-0.5,0.5c0,0.68,0,1.36,0,2.041c0,0.273,0.227,0.5,0.5,0.5
			c3.778,0,7.556,0,11.333,0c0.137,0,0.238-0.051,0.318-0.123c0.011-0.009,0.022-0.016,0.033-0.025
			c0.01-0.011,0.018-0.023,0.026-0.035c0.071-0.079,0.122-0.18,0.122-0.317c0-0.68,0-1.36,0-2.041c0-0.273-0.227-0.5-0.5-0.5
			C23.702,7.457,19.923,7.457,16.146,7.457z M26.979,9.498c-3.445,0-6.889,0-10.333,0c0-0.347,0-0.694,0-1.041
			c3.445,0,6.89,0,10.333,0C26.979,8.804,26.979,9.151,26.979,9.498z"/>
		<path style="fill:#010002;" d="M15.188,6.235c4.347,0,8.693,0,13.041,0c0.206,0,0.359-0.077,0.477-0.184
			c0.018-0.013,0.035-0.023,0.051-0.038c0.016-0.016,0.025-0.034,0.039-0.051c0.106-0.118,0.184-0.271,0.184-0.477
			c0-1.578,0-3.157,0-4.735c0-0.409-0.341-0.75-0.75-0.75c-4.348,0-8.694,0-13.041,0c-0.409,0-0.75,0.341-0.75,0.75
			c0,1.578,0,3.157,0,4.735C14.438,5.894,14.779,6.235,15.188,6.235z M15.938,1.5c3.847,0,7.693,0,11.541,0c0,1.078,0,2.157,0,3.235
			c-3.848,0-7.694,0-11.541,0C15.938,3.657,15.938,2.578,15.938,1.5z"/>
	</g>
</g>
</svg>