<?xml version="1.0" standalone="no"?>
<!DOCTYPE svg PUBLIC "-//W3C//DTD SVG 20010904//EN"
 "http://www.w3.org/TR/2001/REC-SVG-20010904/DTD/svg10.dtd">
<svg version="1.0" xmlns="http://www.w3.org/2000/svg"
 width="512.000000pt" height="512.000000pt" viewBox="0 0 512.000000 512.000000"
 preserveAspectRatio="xMidYMid meet">

<g transform="translate(0.000000,512.000000) scale(0.100000,-0.100000)"
fill="#000000" stroke="none">
<path d="M2516 4998 c-34 -612 -268 -1137 -713 -1598 -482 -501 -1028 -759
-1680 -796 l-123 -7 0 -36 0 -37 163 -12 c343 -24 595 -91 892 -237 278 -136
462 -270 706 -514 472 -472 706 -970 751 -1598 l12 -163 37 0 36 0 7 123 c20
361 100 660 260 974 124 243 269 438 495 664 244 243 428 378 706 514 297 146
549 213 893 237 l162 12 0 36 0 36 -162 12 c-344 24 -596 91 -893 237 -278
136 -462 271 -706 514 -226 226 -371 421 -495 664 -160 314 -240 613 -260 975
l-7 122 -37 0 -37 0 -7 -122z"/>
</g>
</svg>
